<?xml version="1.0" encoding="UTF-8"?>
<svg width="183px" height="75px" viewBox="0 0 183 75" version="1.1" xmlns="http://www.w3.org/2000/svg" xmlns:xlink="http://www.w3.org/1999/xlink">
    <!-- Generator: Sketch 52 (66869) - http://www.bohemiancoding.com/sketch -->
    <title>pasha-life</title>
    <desc>Created with Sketch.</desc>
    <g id="Page-1" stroke="none" stroke-width="1" fill="none" fill-rule="evenodd">
        <g id="pasha-life">
            <polygon id="Path" fill="#007658" points="11.1371 24.3978 11.1371 11.4016 32.2312 11.4016 32.2289 32.5024 27.4736 32.5033 15.8253 20.8477 15.2561 20.2762"></polygon>
            <polygon id="Path" fill="#00377D" points="0.341675 37.48 15.2568 22.5564 30.1676 37.48 26.8073 40.8419 9.52675 40.8426 9.52675 46.6669"></polygon>
            <polygon id="Path" fill="#007658" points="11.1371 63.5565 24.1272 63.5565 20.581 60.0078 20.0121 59.4368 32.2312 47.2136 32.2312 42.4521 11.1378 42.4537"></polygon>
            <polygon id="Path" fill="#00377D" points="37.2043 74.3606 22.2911 59.4382 37.2043 44.5161 40.5677 47.8803 40.5677 65.1713 46.3897 65.169"></polygon>
            <polygon id="Path" fill="#007658" points="63.2695 63.5568 42.1774 63.5568 42.1796 42.4548 46.9365 42.4548 58.5855 54.1093 59.1555 54.678 59.724 54.1093 63.2706 50.5599"></polygon>
            <polygon id="Path" fill="#00377D" points="74.0672 37.4007 59.1528 52.3235 44.2385 37.4023 47.5992 34.0411 64.8825 34.0416 64.8825 28.2114"></polygon>
            <polygon id="Path" fill="#007658" points="63.27 11.4028 63.27 32.5048 42.1782 32.5048 42.1782 27.7442 53.828 16.0901 54.3969 15.5198 53.828 14.9488 50.2807 11.4032"></polygon>
            <polygon id="Path" fill="#00377D" points="52.1181 15.52 37.2064 30.4385 33.8422 27.0739 33.84 9.7884 28.0195 9.79073 37.2057 0.599854"></polygon>
            <path d="M92.5623,11.3123 L84.3663,11.3123 L84.3663,32.3902 L89.46,32.3902 L89.46,26.4284 L91.0117,26.4284 C97.3002,26.4284 100.699,22.9388 100.699,18.7958 C100.699,14.0868 97.3002,11.3123 92.5623,11.3123 Z M95.4814,18.9139 C95.4814,20.8814 94.3511,22.522 91.1906,22.522 L89.4603,22.522 L89.4603,15.2783 L91.9065,15.2783 C94.6196,15.2783 95.4814,16.7982 95.4814,18.9139 Z" id="Shape" fill="#007658"></path>
            <path d="M122.15,31.2276 L123.583,27.59 C125.46,28.2461 126.829,28.545 129.153,28.545 C131.688,28.545 132.85,27.7694 132.85,26.4883 C132.85,23.0596 122.836,23.9832 122.836,16.8269 C122.836,12.7736 126.682,11.0134 130.408,11.0134 C133.746,11.0134 135.354,11.7293 136.993,12.4455 L135.533,15.9623 C133.982,15.5163 132.7,15.0982 130.557,15.0982 C128.441,15.0982 127.783,15.9029 127.783,16.7985 C127.783,19.5995 137.978,19.5995 137.978,26.3089 C137.978,30.9298 133.567,32.7183 129.213,32.7183 C125.757,32.7183 123.729,32.0913 122.15,31.2276 Z" id="Path" fill="#007658"></path>
            <polygon id="Path" fill="#007658" points="140.654 11.3123 145.721 11.3123 145.721 19.8696 154.008 19.8696 154.008 11.3123 159.076 11.3123 159.076 32.3902 154.008 32.3902 154.008 23.7144 145.721 23.7144 145.721 32.3902 140.654 32.3902"></polygon>
            <path d="M168.047,11.3123 L174.962,11.3123 L182.053,32.3902 L176.809,32.3902 L174.812,26.22 L168.196,26.22 L166.2,32.3902 L160.955,32.3902 L168.047,11.3123 Z M171.504,14.4423 L169.386,22.5501 L173.62,22.5501 L171.504,14.4423 Z" id="Shape" fill="#007658"></path>
            <path d="M107.094,11.3123 L114.01,11.3123 L121.105,32.3902 L115.856,32.3902 L113.861,26.22 L107.242,26.22 L105.246,32.3902 L99.999,32.3902 L107.094,11.3123 Z M110.551,14.4423 L108.435,22.5501 L112.667,22.5501 L110.551,14.4423 Z" id="Shape" fill="#007658"></path>
            <path d="M105.931,45.055 L105.931,40.357 L100.942,40.3552 L100.942,45.0547 L105.931,45.055 Z M98.6715,63.5817 L84.4207,63.5817 L84.4207,42.4496 L89.4997,42.4496 L89.4997,59.5765 L98.6715,59.5765 L98.6715,63.5817 Z M105.932,63.5826 L100.942,63.5826 L100.942,47.2627 L105.932,47.2627 L105.932,63.5826 Z M116.03,68.0658 L111.04,68.0658 L111.04,50.6997 L108.65,50.6997 L108.65,47.2624 L111.04,47.2624 L111.04,46.6646 C111.04,41.6132 114.118,40.567 117.524,40.567 C118.719,40.567 119.465,40.7165 120.451,41.0453 L119.675,44.7217 C119.077,44.5723 118.3,44.4826 117.703,44.4826 C116.478,44.4826 116.03,45.4092 116.03,46.6945 L116.03,47.2624 L119.525,47.2624 L119.525,50.6997 L116.03,50.6997 L116.03,68.0658 Z M129.803,63.941 C131.774,63.941 134.105,63.6123 135.927,63.0145 L135.18,59.338 C133.477,59.7265 131.625,59.9956 130.52,59.9956 C127.92,59.9956 125.889,59.5174 125.919,56.9468 L136.495,56.9468 L136.495,55.1534 C136.495,50.2215 134.463,46.8739 129.325,46.8739 C124.395,46.8739 120.959,48.9961 120.959,55.6615 C120.959,62.1776 124.425,63.941 129.803,63.941 Z M128.966,50.4006 C127.263,50.4006 126.158,51.5963 126.068,53.7483 L131.386,53.7483 C131.446,51.7756 130.579,50.4006 128.966,50.4006 Z" id="Shape" fill="#00377D"></path>
        </g>
    </g>
</svg>